Coordinates
version=1
nRows=7
nColumns=33
inDegrees=yes

Units are S.I. units (second, meters, Newtons, ...)
Angles are in degrees.

endheader
time	ground_thorax_rot_x	ground_thorax_rot_y	ground_thorax_rot_z	ground_thorax_tx	ground_thorax_ty	ground_thorax_tz	clav_prot_r	clav_elev_r	scapula_abduction_r	scapula_elevation_r	scapula_upward_rot_r	scapula_winging_r	shoulder_elv_r	plane_of_elev_r	axial_rot_r	elbow_flexion_r	pro_sup_r	wrist_flex_r	wrist_dev_r	clav_prot_l	clav_elev_l	scapula_abduction_l	scapula_elevation_l	scapula_upward_rot_l	scapula_winging_l	shoulder_elv_l	plane_of_elev_l	axial_rot_l	elbow_flexion_l	pro_sup_l	wrist_flex_l	wrist_dev_l
      3.57000000	     29.98856387	     23.68258597	     39.09797121	    -61.67876122	    849.16570834	    -50.98727952	     12.28910554	     33.87538690	     27.32877652	     45.00000000	    -45.00000000	   2072.75389147	   3313.38250180	     24.22193105	    179.99999979	   2881.48998523	    178.06881072	     18.59435004	     13.96420465	     -6.90833562	    -45.00000000	    -39.71438888	     45.00000000	    -45.00000000	   2983.74386672	  -3161.44925395	     27.70993580	     37.40954925	   2510.74713275	     42.33768992	     13.76799018	    -21.84654485
      3.58000000	     29.82581749	     23.71251031	     39.51957527	    -58.77547397	    848.44216465	    -50.98771302	     12.58890107	     34.04854475	     27.65727935	     45.00000000	    -45.00000000	   2072.73307481	   3313.22153582	     24.27722324	    179.99999979	   2881.40764976	    177.15539972	     18.46384401	     14.09367837	     -7.15949071	    -45.00000000	    -39.67944503	     45.00000000	    -45.00000000	   2983.56276148	  -3161.41739069	     27.78353636	     38.05625692	   2510.67455699	     42.37749201	     13.81410234	    -21.59850677
      3.59000000	     29.62627723	     23.77454450	     39.93156188	    -55.81200614	    847.66727601	    -50.97224862	     12.48422117	     34.01189209	     27.78870100	     45.00000000	    -45.00000000	   2072.83217889	   3313.16868298	     24.32754523	    179.99999979	   2881.19991969	    176.31424618	     18.35606816	     14.25743151	     -7.00807258	    -45.00000000	    -39.67655587	     45.00000000	    -45.00000000	   2983.43310601	  -3161.46345592	     27.87444889	     38.43985501	   2510.71320715	     42.37498204	     13.90679560	    -21.40279684
      3.60000000	     29.44093732	     23.88682598	     40.35959942	    -52.79197856	    846.84601563	    -50.93988673	     12.79519992	     34.12593724	     28.07775143	     45.00000000	    -45.00000000	   2072.88303656	   3313.03325641	     24.29180208	    179.99999979	   2881.10352682	    175.36717617	     18.19860299	     14.40957337	     -7.33504991	    -45.00000000	    -39.61343855	     45.00000000	    -45.00000000	   2983.18161454	  -3161.40178066	     27.87747614	     38.98798272	   2510.67732433	     42.36816814	     13.94391376	    -21.11496026
      3.61000000	     29.26569348	     24.01207261	     40.76739600	    -49.72455373	    845.98708446	    -50.89139394	     12.79510280	     34.15371806	     28.23023236	     45.00000000	    -45.00000000	   2072.94947265	   3312.97477791	     24.33969577	    179.99999979	   2880.94871462	    174.49335538	     18.04527732	     14.55563551	     -7.29493584	    -45.00000000	    -39.58399605	     45.00000000	    -45.00000000	   2983.02242283	  -3161.45961088	     27.96212313	     39.30883612	   2510.65416824	     42.37047606	     14.03354199	    -20.88775756
      3.62000000	     29.06601003	     24.14013211	     41.19658755	    -46.61162402	    845.09267652	    -50.82637446	     12.94434887	     34.18138844	     28.45102440	     45.00000000	    -45.00000000	   2073.06152670	   3312.86179377	     24.30063919	    179.99999979	   2880.77520472	    173.59550070	     17.87680871	     14.72383035	     -7.47061450	    -45.00000000	    -39.52303674	     45.00000000	    -45.00000000	   2982.81405868	  -3161.43099971	     27.96160102	     39.71465504	   2510.65991766	     42.37832888	     14.07837182	    -20.62371193
      3.63000000	     28.88049195	     24.31047973	     41.60479285	    -43.45532600	    844.16374783	    -50.74475287	     13.00442739	     34.19087231	     28.60562773	     45.00000000	    -45.00000000	   2073.18024821	   3312.78340135	     24.27800308	    179.99999979	   2880.62198384	    172.74617799	     17.68771699	     14.88264947	     -7.54610316	    -45.00000000	    -39.47665658	     45.00000000	    -45.00000000	   2982.60807428	  -3161.47448673	     27.99936327	     40.01434174	   2510.62550176	     42.42110849	     14.13910717	    -20.37523354
